<?xml version="1.0" encoding="utf-8"?>
<svg version="1.1" id="svg_layer" xmlns="http://www.w3.org/2000/svg" xmlns:xlink="http://www.w3.org/1999/xlink" x="0px" y="0px"
	 viewBox="0 0 1584.9 216.9" style="enable-background:new 0 0 1584.9 216.9;" xml:space="preserve">
<style type="text/css">
	.st0{fill:#5D0D80;}
	.st1{fill:url(#SVG_GRAD_1);}
	.st2{fill:url(#SVG_GRAD_2);}
	.st3{opacity:0.22;fill:#1E003D;}
</style>
<g>
	<path class="st0" d="M0,216.9v-48.1h143.4c7.2,0,13.4-1.4,18.7-4.3c5.3-2.9,7.9-7.5,7.9-14.1c0-5.5-2-9.6-6-12.4
		c-4-2.7-8.9-4.5-14.6-5.4H76c-10.3,0-20-1.3-28.8-4c-8.9-2.6-16.6-6.6-23.3-11.9c-6.6-5.3-12.1-11.8-16.3-19.5
		C3.4,89.7,0.8,80.9,0,70.9v-9.2C1.3,51.8,4,43,8.1,35.3c4.1-7.7,9.4-14.1,16-19.3c6.5-5.2,14.2-9.1,23-11.9C55.8,1.4,65.4,0,76,0
		h153.3v48.1H85.8c-7.2,0-13.4,1.4-18.7,4.3c-5.3,2.8-7.9,7.5-7.9,14.1c0,5.5,1.9,9.7,5.9,12.7c3.9,3,8.7,4.7,14.4,5.4h73.8
		c10.3,0,19.9,1.3,28.8,4c8.9,2.6,16.6,6.5,23.3,11.7c6.7,5.2,12,11.6,16.2,19.3c4.1,7.7,6.7,16.5,7.8,26.4v9.2
		c-1.3,9.9-4,18.7-8.1,26.4c-4.1,7.7-9.4,14.1-16,19.3c-6.5,5.2-14.2,9.1-23.1,11.9c-8.9,2.7-18.5,4.1-28.8,4.1H0z"/>
	<path class="st0" d="M433.8,141.2V0h58.3v146c0,11.4-1.8,21.5-5.5,30.4c-3.7,8.9-8.9,16.3-15.7,22.3c-6.8,6-14.8,10.6-24.1,13.6
		c-9.3,3.1-19.5,4.6-30.7,4.6h-77.6c-11.2,0-21.4-1.5-30.7-4.6c-9.3-3.1-17.3-7.6-23.9-13.6c-6.7-6-11.8-13.5-15.5-22.3
		c-3.7-8.9-5.5-19-5.5-30.4V0h58.3v141.2c0,9.1,2.4,15.9,7.1,20.6c4.7,4.6,11.6,7,20.4,7h57.6c8.9,0,15.7-2.3,20.4-7
		C431.4,157.2,433.8,150.3,433.8,141.2z"/>
	<path class="st0" d="M942.4,216.9L886.6,52.6l-55.4,164.3H773L847.4,0h78.5l74.7,216.9H942.4z"/>
	<path class="st0" d="M1243.8,216.9h-71.2l-84.9-84.2h-74.1V84.6h143.4c7.2,0,13.4-1.4,18.7-4.3c5.3-2.8,7.9-7.4,7.9-13.8
		c0-6.5-2.6-11.2-7.9-14.1c-5.3-2.8-11.5-4.3-18.7-4.3h-143.4V0h153.3c10.3,0,19.9,1.4,28.8,4.1c8.9,2.7,16.6,6.7,23.1,11.9
		c6.5,5.2,11.9,11.6,16,19.3c4.1,7.7,6.8,16.5,8.1,26.4v9.2c-1.9,20.3-9.9,35.6-24.1,46.1c-14.1,10.4-33.4,15.7-57.6,15.7
		L1243.8,216.9z"/>
	<path class="st0" d="M1276.5,216.9V0h58.3v216.9H1276.5z"/>
	<path class="st0" d="M1360,0h64.9l47.5,64.6L1520,0h64.9l-80.1,108.6l79.8,108.3h-64.9l-47.2-64l-47.2,64h-64.9l79.5-108.3L1360,0z
		"/>
	<g>
		<linearGradient id="SVG_GRAD_1" gradientUnits="userSpaceOnUse" x1="780.5963" y1="196.6924" x2="642.9091" y2="32.6032">
			<stop  offset="0" style="stop-color:#6E248C"/>
			<stop  offset="1" style="stop-color:#F95C97"/>
		</linearGradient>
		<polygon class="st1" points="756.8,0 681.8,0 585.8,84.5 585.6,84.5 585.6,132.7 585.8,132.7 681.4,216.9 756.5,216.9 
			641.5,108.6 		"/>
		<linearGradient id="SVG_GRAD_2" gradientUnits="userSpaceOnUse" x1="579.8779" y1="137.5046" x2="531.3972" y2="79.7275">
			<stop  offset="0" style="stop-color:#6E248C"/>
			<stop  offset="1" style="stop-color:#F95C97"/>
		</linearGradient>
		<rect x="525.7" y="84.5" class="st2" width="60" height="48.1"/>
		<polygon class="st3" points="585.6,132.7 585.6,84.5 681.8,0 		"/>
		<polygon class="st3" points="756.8,216.9 708.7,216.9 641.5,108.6 		"/>
		<polygon class="st3" points="525.7,84.5 585.6,132.7 525.7,132.7 		"/>
	</g>
</g>
</svg>
